# xmcd
#
# Track frame offsets:
#	150
#	18080
#	35569
#	55497
#	75326
#	100709
#	120065
#	150548
#	182433
#	197305
#
# Disc length: 2863 seconds
# Revision: 0
# Processed by: cddbd v1.5.2PL0 Copyright (c) Steve Scherf et al.
# Submitted via: dBpowerAMP V12.0
#
DISCID=600b2d0a
DTITLE=Pam Taylor Band - Hot Mess
DYEAR=2012
DGENRE=Blues Female
TTITLE0=Smile Again
TTITLE1=Hot Mess
TTITLE2=Whatcha Doin'
TTITLE3=It's So Easy
TTITLE4=Not The Only One
TTITLE5=All The Same to Me
TTITLE6=Next Time You Think of Cheating
TTITLE7=I'd Rather Go Blind
TTITLE8=I Ain't The One
TTITLE9=All I Got Left
EXTD=
EXTT0=
EXTT1=
EXTT2=
EXTT3=
EXTT4=
EXTT5=
EXTT6=
EXTT7=
EXTT8=
EXTT9=
PLAYORDER=
